<svg width="398" height="183" viewBox="0 0 398 183" fill="none" xmlns="http://www.w3.org/2000/svg">
<path d="M147.485 171.272L155.827 175.688L159.732 169.262L151.205 165.68L147.485 171.272Z" fill="#FF5555"/>
<path d="M46.7237 183L50.6719 173.191L45.0316 170.432L41.0831 180.302L46.7237 183Z" fill="#2BA1E3"/>
<path d="M69.7002 120.204L75.0209 124.631L77.8706 121.669L72.5117 117.23L69.7002 120.204Z" fill="#2BA1E3"/>
<path d="M44.3759 91.3832L50.3204 92.372L51.161 88.8938L45.1822 87.9123L44.3759 91.3832Z" fill="#2BA1E3"/>
<path d="M38.888 156.735L52.5539 152.551L50.6617 144.278L36.931 148.514L38.888 156.735Z" fill="#82EAE7"/>
<path d="M258.363 66.2857L262.01 63.9635L260.791 61.7037L257.129 64.0463L258.363 66.2857Z" fill="#FF5555"/>
<path d="M385.378 53.582L389.026 51.2598L387.807 49L384.145 51.3426L385.378 53.582Z" fill="#FF5555"/>
<path d="M382.38 97.582L386.028 95.2598L384.809 93L381.147 95.3425L382.38 97.582Z" fill="#2BA1E3"/>
<path d="M133.806 152.138L130.413 154.818L131.854 156.943L135.26 154.241L133.806 152.138Z" fill="#FF5555"/>
<path d="M371.468 120.552L371.788 126.136L375.109 126.186L374.775 120.572L371.468 120.552Z" fill="#82EAE7"/>
<path d="M300.708 109.225L306.346 110.542L307.368 107.259L301.696 105.947L300.708 109.225Z" fill="#FF5555"/>
<path d="M123.279 90.1235L129.018 90.0053L129.194 86.6012L123.424 86.7324L123.279 90.1235Z" fill="#FF5555"/>
<path d="M344.579 41L334.371 43.5693L335.455 49.7253L345.713 47.1202L344.579 41Z" fill="#FF5555"/>
<path d="M316.568 63.0138L322.307 62.8956L322.483 59.4915L316.713 59.6227L316.568 63.0138Z" fill="#FF5555"/>
<path d="M171.246 30.2129L168.931 34.2544L171.225 35.7989L173.545 31.7306L171.246 30.2129Z" fill="#FF5555"/>
<path d="M108.093 105.526L101.72 99.0836L97.6316 102.581L104.052 109.045L108.093 105.526Z" fill="#FF5555"/>
<path d="M353.532 135.769L347.16 129.326L343.071 132.824L349.492 139.288L353.532 135.769Z" fill="#82EAE7"/>
<path d="M331.47 113.367L333.373 104.507L328.208 103L326.313 111.911L331.47 113.367Z" fill="#2BA1E3"/>
<path d="M277.632 99.6258L281.877 88.2392L274.563 85.123L270.238 96.5874L277.632 99.6258Z" fill="#2BA1E3"/>
<path d="M146.187 19.285L142.171 5.06219L132.755 7.26013L136.75 21.6165L146.187 19.285Z" fill="#2BA1E3"/>
<path d="M119.854 103.696L116.785 115.454L124.377 117.813L127.518 105.969L119.854 103.696Z" fill="#2BA1E3"/>
<path d="M80.8342 131.845L86.0107 145.2L94.3853 142.832L89.911 130.272L80.8342 131.845Z" fill="#82EAE7"/>
<path d="M201.529 95.6041L208.34 90.9433L205.872 86.7094L199.034 91.4099L201.529 95.6041Z" fill="#2BA1E3"/>
<path d="M312.844 145.025L306.54 150.352L309.424 154.314L315.751 148.945L312.844 145.025Z" fill="#2BA1E3"/>
<path d="M254.102 84.3889L252.569 87.9443L254.609 89.0048L256.143 85.4269L254.102 84.3889Z" fill="#FF5555"/>
<path d="M135.337 125.302L136.502 121.61L134.365 120.761L133.202 124.476L135.337 125.302Z" fill="#FF5555"/>
<path d="M222.706 79.8356L223.819 85.4186L227.174 84.9986L226.042 79.3879L222.706 79.8356Z" fill="#FF5555"/>
<path d="M167.032 126.651L165.359 121.209L162.065 121.967L163.759 127.434L167.032 126.651Z" fill="#FF5555"/>
<path d="M218.301 73.5845L217.678 79.2432L221.002 79.8547L221.616 74.1641L218.301 73.5845Z" fill="#82EAE7"/>
<path d="M298.389 168.631L298.435 162.938L295.066 162.667L295.031 168.39L298.389 168.631Z" fill="#82EAE7"/>
<path d="M218.301 73.5845L217.678 79.2432L221.002 79.8547L221.616 74.1641L218.301 73.5845Z" fill="#82EAE7"/>
<path d="M298.389 168.631L298.435 162.938L295.066 162.667L295.031 168.39L298.389 168.631Z" fill="#82EAE7"/>
<path d="M187.922 77.3165L187.299 82.9752L190.624 83.5867L191.238 77.8961L187.922 77.3165Z" fill="#82EAE7"/>
<path d="M328.235 161.84L328.281 156.147L324.911 155.876L324.877 161.599L328.235 161.84Z" fill="#82EAE7"/>
<path d="M242.342 70.0295L236.65 58.3102L229.465 61.1787L235.213 72.9491L242.342 70.0295Z" fill="#FF5555"/>
<path d="M149.635 143.603L156.485 154.685L163.342 151.104L156.432 139.976L149.635 143.603Z" fill="#FF5555"/>
<path d="M177.773 114.002L190.109 109.811L188.156 102.326L175.762 106.565L177.773 114.002Z" fill="#FF5555"/>
<path d="M333.394 119L321.547 124.419L324.248 131.669L336.148 126.195L333.394 119Z" fill="#FF5555"/>
<path d="M238.765 115.43L245.802 103.545L239.065 98.8674L232.015 110.831L238.765 115.43Z" fill="#82EAE7"/>
<path d="M140.395 90.5149L144.764 108.241L155.45 106.414L151.019 88.6012L140.395 90.5149Z" fill="#82EAE7"/>
<path d="M41.7431 15.4481L34.4016 28.0399L42.4103 33.2156L49.8616 20.5481L41.7431 15.4481Z" fill="#2BA1E3"/>
<path d="M316.041 77.0828L311.575 85.2295L316.248 88.3968L320.612 80.9308L316.041 77.0828Z" fill="#82EAE7"/>
<path d="M63.5603 133.08L67.1779 124.523L62.2081 121.845L58.6226 129.715L63.5603 133.08Z" fill="#FF5555"/>
<path d="M42.7974 108.365L46.5841 102.567L43.3123 100.076L39.5176 105.913L42.7974 108.365Z" fill="#FF5555"/>
<path d="M14.4071 59.2965L17.3606 63.5344L19.9971 61.967L17.0186 57.7125L14.4071 59.2965Z" fill="#FF5555"/>
<path d="M57.0597 71.0854L66.1788 67.233L64.2883 61.6671L55.1283 65.5598L57.0597 71.0854Z" fill="#2BA1E3"/>
<path d="M118.893 34.7684L109.891 38.887L111.944 44.395L120.986 40.2348L118.893 34.7684Z" fill="#2BA1E3"/>
<path d="M351.501 106.232L362.866 97.5011L358.183 90.396L346.775 99.1984L351.501 106.232Z" fill="#2BA1E3"/>
<path d="M7.07747 111.851L16.7357 116.894L20.1362 111.39L10.4151 106.341L7.07747 111.851Z" fill="#2BA1E3"/>
<path d="M312.18 7.65862L303.178 11.7773L305.232 17.2852L314.273 13.125L312.18 7.65862Z" fill="#2BA1E3"/>
<path d="M211.583 50.285L212.479 42.3029L207.79 41.4302L206.907 49.4573L211.583 50.285Z" fill="#2BA1E3"/>
<path d="M5.69604 42.8533L8.8896 33.4832L3.47713 31.1901L0.286432 40.6176L5.69604 42.8533Z" fill="#FF5555"/>
<path d="M49.2342 48.1914L51.772 44.302L49.5773 42.6323L47.0342 46.5481L49.2342 48.1914Z" fill="#FF5555"/>
<path d="M101.733 16.8379L101.557 10.012L97.5064 9.82396L97.6986 16.6863L101.733 16.8379Z" fill="#FF5555"/>
<path d="M386.596 99.0796L389.059 108.653L394.834 107.605L392.337 97.9849L386.596 99.0796Z" fill="#FF5555"/>
<path d="M287.448 7.04219L287.271 0.216325L283.221 0.0282527L283.413 6.89055L287.448 7.04219Z" fill="#FF5555"/>
<path d="M222.341 33.3398L227.163 36.0684L228.986 33.3298L224.132 30.5967L222.341 33.3398Z" fill="#FF5555"/>
<path d="M101.602 89.2246L95.0388 83.1839L91.1798 86.8122L97.7917 92.8713L101.602 89.2246Z" fill="#2BA1E3"/>
<path d="M358.232 23.7912L369.452 30.185L373.72 23.8143L362.426 17.4101L358.232 23.7912Z" fill="#2BA1E3"/>
<path d="M294.891 62.1148L288.328 56.0742L284.469 59.7024L291.081 65.7615L294.891 62.1148Z" fill="#2BA1E3"/>
<path d="M98.2779 157.415L105.42 162.76L108.891 158.759L101.699 153.401L98.2779 157.415Z" fill="#2BA1E3"/>
<path d="M180.923 15.5109L187.866 13.4689L186.955 9.26899L179.978 11.3369L180.923 15.5109Z" fill="#2BA1E3"/>
<path d="M97.1188 41.4208L90.2982 41.1007L89.8162 45.1265L96.6743 45.4336L97.1188 41.4208Z" fill="#82EAE7"/>
<path d="M291.378 15.3291L293.269 8.76799L289.464 7.36681L287.577 13.9674L291.378 15.3291Z" fill="#82EAE7"/>
<path d="M214.934 32.6122L218.708 36.6684L221.272 34.6072L217.469 30.5373L214.934 32.6122Z" fill="#82EAE7"/>
<path d="M105.665 25.1249L107.556 18.5637L103.751 17.1626L101.864 23.7631L105.665 25.1249Z" fill="#82EAE7"/>
<path d="M291.378 15.3291L293.269 8.76799L289.464 7.36681L287.577 13.9674L291.378 15.3291Z" fill="#82EAE7"/>
<path d="M214.934 32.6122L218.708 36.6684L221.272 34.6072L217.469 30.5373L214.934 32.6122Z" fill="#82EAE7"/>
<path d="M131.054 60.2312L132.945 53.6701L129.14 52.2689L127.253 58.8695L131.054 60.2312Z" fill="#82EAE7"/>
<path d="M144.583 71.3583L152.514 65.2955L149.263 60.3385L141.303 66.4509L144.583 71.3583Z" fill="#2BA1E3"/>
<path d="M324.349 33.1215L326.239 26.5604L322.435 25.1592L320.548 31.7598L324.349 33.1215Z" fill="#82EAE7"/>
<path d="M188.788 48.109L192.562 52.1651L195.126 50.1039L191.323 46.034L188.788 48.109Z" fill="#82EAE7"/>
<path d="M126.891 64.3334L123.559 58.3736L119.886 60.0916L123.249 66.0764L126.891 64.3334Z" fill="#2BA1E3"/>
<path d="M320.182 37.2237L316.85 31.2639L313.177 32.9819L316.54 38.9667L320.182 37.2237Z" fill="#2BA1E3"/>
<path d="M187.674 43.4992L193.212 43.671L193.551 40.3988L187.983 40.2379L187.674 43.4992Z" fill="#2BA1E3"/>
<path d="M78.8102 69.7933L77.1129 76.4072L80.9572 77.6959L82.6494 71.0428L78.8102 69.7933Z" fill="#82EAE7"/>
<path d="M396.691 43.8155L396.94 33.9335L391.098 33.3621L390.869 43.2979L396.691 43.8155Z" fill="#82EAE7"/>
<path d="M272.097 42.6836L270.4 49.2974L274.244 50.5862L275.937 43.933L272.097 42.6836Z" fill="#82EAE7"/>
<path d="M203.964 7.77276L200.073 3.82928L197.571 5.9649L201.491 9.9213L203.964 7.77276Z" fill="#82EAE7"/>
<path d="M68.9517 36.2888L73.2876 51.3018L82.3649 49.3776L77.9734 34.2929L68.9517 36.2888Z" fill="#FF5555"/>
<path d="M262.241 9.17903L266.577 24.1921L275.654 22.2678L271.262 7.18315L262.241 9.17903Z" fill="#FF5555"/>
<path d="M231.387 14.9126L219.132 11.6569L216.679 18.7748L229.006 22.0217L231.387 14.9126Z" fill="#FF5555"/>
<path d="M34.7425 65.6735L24.5489 70.3594L26.887 76.5974L37.1255 71.8644L34.7425 65.6735Z" fill="#FF5555"/>
<path d="M346.033 83.2074L353.265 87.5794L356.164 83.4838L348.884 79.1037L346.033 83.2074Z" fill="#82EAE7"/>
<path d="M158.985 80.2149L168.586 86.019L172.436 80.5817L162.77 74.7669L158.985 80.2149Z" fill="#FF5555"/>
<path d="M356.725 156.024L346.585 151.223L343.307 157.022L353.511 161.828L356.725 156.024Z" fill="#FF5555"/>
<path d="M105.983 64.8619L105.334 55.1012L99.5252 55.0673L100.199 64.8792L105.983 64.8619Z" fill="#FF5555"/>
<path d="M299.272 37.7522L298.623 27.9915L292.814 27.9576L293.488 37.7695L299.272 37.7522Z" fill="#FF5555"/>
<path d="M196.041 28.7339L203.101 32.3597L205.551 28.3335L198.445 24.7033L196.041 28.7339Z" fill="#FF5555"/>
<path d="M106.272 64.5223L105.623 54.7616L99.8143 54.7277L100.488 64.5396L106.272 64.5223Z" fill="#FF5555"/>
<path d="M359.648 60.1601L363.73 73.7208L371.936 71.8846L367.803 58.2594L359.648 60.1601Z" fill="#FF5555"/>
<path d="M299.563 37.4125L298.914 27.6518L293.105 27.6179L293.779 37.4299L299.563 37.4125Z" fill="#FF5555"/>
<path d="M196.158 29.0792L203.218 32.705L205.669 28.6788L198.562 25.0486L196.158 29.0792Z" fill="#FF5555"/>
<path d="M158.989 49.1138L170.019 57.1413L174.415 52.0154L163.311 43.9644L158.989 49.1138Z" fill="#82EAE7"/>
<path d="M62.6254 102.162L65.4442 97.8451L63.0086 95.9905L60.1838 100.336L62.6254 102.162Z" fill="#82EAE7"/>
</svg>
